<svg width="2025" height="2943" viewBox="0 0 2025 2943" fill="none" xmlns="http://www.w3.org/2000/svg">
<path d="M910.26 321.547C903.977 259.154 953.123 205 1016.03 205H1018.88C1082.11 205 1131.36 259.688 1124.56 322.352L1110.41 452.853C1109.12 464.732 1109.12 476.716 1110.41 488.595L1124.56 619.096C1131.36 681.76 1082.11 736.448 1018.88 736.448H1016.03C953.123 736.448 903.977 682.294 910.26 619.901L923.61 487.332C924.722 476.288 924.722 465.16 923.61 454.116L910.26 321.547Z" fill="black"/>
<path d="M490.55 489.535C453.785 438.634 469.174 367.214 523.666 335.852L526.769 334.066C581.543 302.542 651.645 325.379 677.174 383.062L730.231 502.944C735.088 513.919 741.123 524.338 748.229 534.019L825.85 639.764C863.199 690.644 847.988 762.581 793.214 794.105L790.11 795.891C735.619 827.252 665.876 804.828 640.038 747.637L585.243 626.357C580.653 616.197 575.05 606.522 568.518 597.479L490.55 489.535Z" fill="black"/>
<path d="M1541.77 489.535C1578.54 438.634 1563.15 367.214 1508.66 335.852L1505.55 334.066C1450.78 302.542 1380.68 325.379 1355.15 383.062L1302.09 502.944C1297.24 513.919 1291.2 524.338 1284.1 534.019L1206.47 639.764C1169.13 690.644 1184.34 762.581 1239.11 794.105L1242.21 795.891C1296.71 827.252 1366.45 804.828 1392.29 747.637L1447.08 626.357C1451.67 616.197 1457.27 606.522 1463.81 597.479L1541.77 489.535Z" fill="black"/>
<path d="M910.26 321.547C903.977 259.154 953.123 205 1016.03 205H1018.88C1082.11 205 1131.36 259.688 1124.56 322.352L1110.41 452.853C1109.12 464.732 1109.12 476.716 1110.41 488.595L1124.56 619.096C1131.36 681.76 1082.11 736.448 1018.88 736.448H1016.03C953.123 736.448 903.977 682.294 910.26 619.901L923.61 487.332C924.722 476.288 924.722 465.16 923.61 454.116L910.26 321.547Z" fill="black"/>
<path d="M490.55 489.535C453.785 438.634 469.174 367.214 523.666 335.852L526.769 334.066C581.543 302.542 651.645 325.379 677.174 383.062L730.231 502.944C735.088 513.919 741.123 524.338 748.229 534.019L825.85 639.764C863.199 690.644 847.988 762.581 793.214 794.105L790.11 795.891C735.619 827.252 665.876 804.828 640.038 747.637L585.243 626.357C580.653 616.197 575.05 606.522 568.518 597.479L490.55 489.535Z" fill="black"/>
<path d="M1541.77 489.535C1578.54 438.634 1563.15 367.214 1508.66 335.852L1505.55 334.066C1450.78 302.542 1380.68 325.379 1355.15 383.062L1302.09 502.944C1297.24 513.919 1291.2 524.338 1284.1 534.019L1206.47 639.764C1169.13 690.644 1184.34 762.581 1239.11 794.105L1242.21 795.891C1296.71 827.252 1366.45 804.828 1392.29 747.637L1447.08 626.357C1451.67 616.197 1457.27 606.522 1463.81 597.479L1541.77 489.535Z" fill="black"/>
<path d="M274.911 1496.53L315.514 1662.07C341.142 1766.56 340.441 1875.75 313.473 1979.91L273.299 2135.06C267.197 2158.63 267.114 2183.35 273.058 2206.96L273.561 2208.95C289.582 2272.59 346.966 2317.21 412.783 2317.21C478 2317.21 535.021 2273.38 551.604 2210.51L555.502 2195.73C559.827 2179.33 561.558 2162.36 560.629 2145.42L551.64 1981.39C549.788 1947.6 576.777 1919.19 610.728 1919.19C624.264 1919.19 637.391 1923.81 647.919 1932.29L671.678 1951.43C695.014 1970.22 711.955 1995.75 720.183 2024.51L770.034 2198.76C775.084 2216.42 783.107 2233.08 793.76 2248.05L804.973 2263.81C845.568 2320.86 922.202 2339.23 984.381 2306.83C1064.3 2265.18 1084.6 2160.26 1025.96 2091.97L864.061 1903.44C827.841 1854.12 826.533 1787.46 860.79 1736.76L864.061 1731.92L1018.45 1537.03C1074.84 1465.83 1051.72 1360.99 970.574 1319.94C904.778 1286.66 824.389 1308.3 784.351 1370.08L778.61 1378.94C769.851 1392.46 763.252 1407.25 759.049 1422.78L723.428 1554.44C716.428 1580.31 703.788 1604.33 686.41 1624.78L648.723 1669.13C637.893 1681.87 621.986 1689.22 605.231 1689.22C573.751 1689.22 548.23 1663.78 548.23 1632.4V1478.23C548.23 1460.86 545.684 1443.59 540.673 1426.96L529.832 1390.99C513.563 1337 463.705 1300.04 407.157 1300.04C352.025 1300.04 303.079 1335.2 285.641 1387.34L278.531 1408.6C269.037 1436.98 267.782 1467.46 274.911 1496.53Z" fill="black"/>
<path d="M470.427 1262.22C205.647 1255.23 201.696 927.019 470.427 916.545C600.675 916.545 858.441 942.724 948.689 942.724C1063.6 942.724 1354.69 916.545 1421.32 916.545C1516.01 916.545 1554.59 908.734 1626.48 942.724C1788.95 1019.53 1766.56 1155.69 1724.68 1220.32C1654.54 1328.55 1402.03 1618.31 1328.38 1728.29C1302.71 1766.62 1273.73 1826 1328.38 1902.8C1388 1986.59 1619.66 2220.5 1724.68 2363.63C1782.31 2442.18 1789.56 2602.78 1626.48 2683.07C1555.45 2718.05 1516.01 2707.51 1421.32 2707.51C1356.44 2707.51 1063.6 2681.33 947.87 2681.33C856.687 2681.33 669.062 2707.51 470.427 2707.51C201.702 2707.51 188.756 2382.83 470.427 2363.63C557.659 2357.69 857.001 2415.3 948.689 2426.47C1073.19 2441.64 1167.31 2407.27 1205.89 2363.63C1225.96 2340.94 1267.36 2234.21 1205.89 2154.8C1134.85 2063 1056.82 1963.63 1008.76 1902.8C985.753 1874.57 953.544 1800.14 1008.76 1728.29C1032.99 1688.44 1121.12 1587.49 1205.89 1485.6C1262.23 1417.88 1277.94 1332.7 1245.03 1281.37C1194.67 1202.82 1063.6 1201.07 948.689 1211.55C866.617 1219.03 565.12 1262.22 470.427 1262.22Z" fill="black"/>
</svg>
